<?xml version="1.0" encoding="UTF-8" standalone="no"?>
<!DOCTYPE svg PUBLIC "-//W3C//DTD SVG 1.1//EN" "http://www.w3.org/Graphics/SVG/1.1/DTD/svg11.dtd">
<svg width="100%" height="100%" viewBox="0 0 361 471" version="1.1" xmlns="http://www.w3.org/2000/svg" xmlns:xlink="http://www.w3.org/1999/xlink" xml:space="preserve" xmlns:serif="http://www.serif.com/" style="fill-rule:evenodd;clip-rule:evenodd;">
    <g transform="matrix(1,0,0,1,0,-600)">
        <g transform="matrix(0.745684,0,0,0.734998,-4.84694,113.997)">
            <rect id="ImprintWhite" x="6.5" y="661.231" width="484.12" height="640.818" style="fill:none;"/>
            <clipPath id="_clip1">
                <rect id="ImprintWhite1" serif:id="ImprintWhite" x="6.5" y="661.231" width="484.12" height="640.818"/>
            </clipPath>
            <g clip-path="url(#_clip1)">
                <g id="Imprint" transform="matrix(1.35067,0,0,1.37031,12.0707,669.635)">
                    <rect id="Rectangle-path" x="0.84" y="0.33" width="348" height="454.72" style="fill:none;stroke:white;stroke-width:4px;"/>
                    <path id="Shape" d="M1,215C1,215 60.13,221.35 76.62,194.24C93.11,167.13 95.91,145.6 118.27,134.42C140.63,123.24 176.69,172.42 176.69,172.42C176.69,172.42 187.31,185 183.69,199.25C180.07,213.5 181,225.64 188,229C195,232.36 207.86,234.49 207.86,234.49C207.86,234.49 211.63,234.35 210.09,236.17C208.55,237.99 207.02,246.93 218.62,266.08C218.62,266.08 220.99,248.75 212.33,243.86C203.67,238.97 191.23,249.73 191.23,249.73C191.23,249.73 187.23,253.5 189.64,255.22C192.05,256.94 198.26,256.67 202.5,256.99C206.74,257.31 208.93,258.76 212.05,261.61C215.17,264.46 220.05,269.78 220.62,271.55" style="fill:none;stroke:white;stroke-width:4px;stroke-linejoin:round;"/>
                    <path id="Shape1" serif:id="Shape" d="M349.34,91.83C349.34,91.83 314.21,81.13 299.49,110.01C284.77,138.89 287.38,142.25 287.38,142.25C287.38,142.25 287.75,147.84 283.84,141.88C279.93,135.92 259.43,126.6 235.2,124.36C210.97,122.12 208.56,105.17 210.2,89.51C211.84,73.85 218.59,50.94 213,36.78C207.41,22.62 202.38,37.9 199.4,40.32C196.42,42.74 187.66,52.25 168.28,52.62C168.28,52.62 159.7,80.38 169.77,120.26C179.84,160.14 183.09,154.55 191.77,153.71C200.45,152.87 216.36,149.38 205.88,146.58C195.4,143.78 183.52,144.74 180.72,145.44C177.92,146.14 188.41,148.12 195.12,159.86C201.83,171.6 195.26,175.09 192.88,190.33C192.88,190.33 189.25,215.21 189.62,220.14C189.99,225.07 210.62,230.67 212.54,227.97C214.46,225.27 211.98,222.75 207.23,221.63C202.48,220.51 199.78,222.75 203.5,225.08C207.22,227.41 219.34,230.86 221.77,222.29C224.2,213.72 211.15,208.12 212.17,194.8C213.19,181.48 209.47,170.02 217.67,164.24C217.67,164.24 208.07,162.38 205,162.38C201.93,162.38 202.29,164.24 202.2,169.27C202.11,174.3 202.2,172.07 202.2,172.07C202.2,172.07 215.15,163.77 226.89,161.63C238.63,159.49 240.96,161.16 237.23,168.25C233.5,175.34 228.31,183.48 229.98,197.83C231.65,212.18 256.46,221.07 275.65,212.5C294.84,203.93 311.4,193.31 318.39,201.5C325.38,209.69 329.57,238.77 323.79,254.61C318.01,270.45 306.89,308.93 272.5,308C238.11,307.07 238,294.77 240.7,280C243.4,265.23 242.84,258.22 237.25,253.29C231.66,248.36 231.38,260.06 231.38,263.04C231.38,266.02 238.01,268.75 239.5,262.79C240.99,256.83 237,248.84 237,248.84C237,248.84 236.82,246.7 231.6,247.44C226.38,248.18 222.19,244.44 221.6,240.64C221.01,236.84 219.83,214.83 210.89,208.31C201.95,201.79 195.61,197.13 185.08,193.5C174.55,189.87 182.75,192.28 173.71,179.71C164.67,167.14 154.42,160.51 138.4,159.3C122.38,158.09 113.5,171.75 113.5,171.75C113.5,171.75 143.34,161.35 153.86,170.3C164.38,179.25 169.7,185 170.17,182.87C170.64,180.74 169.98,179.71 168.86,177.47C167.74,175.23 166.44,172.62 150.6,173.74C134.76,174.86 129.17,176.54 119.3,186.14C119.3,186.14 143.24,197.78 154.89,196.76C166.54,195.74 168.4,193.68 164.39,186.76C164.39,186.76 138.86,190.76 130.57,188.15C122.28,185.54 125.82,183.96 132.15,180.98C138.48,178 148.65,174.64 155.73,180.7C159.23,183.7 168.88,196.1 172.63,209.7C176.46,223.58 174.29,238.7 167.19,244.88C153.12,257.08 129.82,246.74 118.83,243.29C107.84,239.84 89.57,230.62 84.54,219.63C79.51,208.64 89.76,203.23 99.82,206.58C109.88,209.93 123.12,223.35 117.9,235.37C112.68,247.39 108.67,252.89 94.7,261.18C80.73,269.47 70.38,276.84 79.51,287.36C88.64,297.88 113.05,311.36 137.74,316.99C162.43,322.62 185.17,325.38 198.21,323.99C211.25,322.6 222.07,320.45 223.84,311.41C225.61,302.37 222.44,302.41 220.48,296.69C218.52,290.97 219.16,284.07 220.95,280.3L221.04,280.11C221.04,280.11 225.42,272.37 213.77,264.55C202.12,256.73 192.62,257.55 189.27,258.55C185.92,259.55 194,260.4 201,264.5C208,268.6 224.86,284.2 219.92,270.18" style="fill:none;stroke:white;stroke-width:4px;stroke-linejoin:round;"/>
                    <path id="Shape2" serif:id="Shape" d="M18.1,378.72L31.92,378.72C37.65,378.72 40.06,381.46 40.06,384.56C40.112,386.764 38.682,388.73 36.57,389.36C38.82,390.05 40.91,391.71 40.91,394.57C40.91,398.47 38.03,401.22 31.76,401.22L18.1,401.22L18.1,378.72ZM30.1,387.36C32.1,387.36 32.74,386.46 32.74,385.36C32.74,384.03 31.74,383.36 30.11,383.36L25.11,383.36L25.11,387.36L30.1,387.36ZM25.1,396.59L30.19,396.59C32.14,396.59 33.27,395.91 33.27,394.21C33.27,392.82 32.39,391.96 30.35,391.96L25.1,391.96L25.1,396.59Z" style="fill:white;fill-rule:nonzero;"/>
                    <path id="Shape3" serif:id="Shape" d="M65.74,392.25L53.69,392.25L53.69,396.05L67.16,396.05L66.32,401.22L46.55,401.22L46.55,378.72L66.38,378.72L66.38,383.9L53.69,383.9L53.69,387.07L65.74,387.07L65.74,392.25Z" style="fill:white;fill-rule:nonzero;"/>
                    <path id="Shape4" serif:id="Shape" d="M80,401.22L80,393.42C80.004,393.098 79.89,392.785 79.68,392.54L70.62,378.72L79.12,378.72C80.95,381.97 82.88,385.41 83.97,387.78C85.05,385.48 87.05,382.11 88.91,378.72L96.69,378.72L87.44,392.72C87.308,392.95 87.249,393.215 87.27,393.48L87.27,401.17L80,401.22Z" style="fill:white;fill-rule:nonzero;"/>
                    <path id="Shape5" serif:id="Shape" d="M124.37,389.92C124.37,396.26 120.18,401.74 111.37,401.74C103.27,401.74 98.8,396.55 98.8,389.95C98.8,383.75 103.16,378.21 111.7,378.21C119.81,378.21 124.37,383.55 124.37,389.92ZM106.42,389.84C106.42,393.77 108,396.68 111.71,396.68C115.42,396.68 116.71,393.34 116.71,389.97C116.71,386.07 115.31,383.18 111.48,383.18C107.86,383.18 106.42,386.17 106.42,389.84Z" style="fill:white;fill-rule:nonzero;"/>
                    <path id="Shape6" serif:id="Shape" d="M130.77,401.22L130.77,378.72L139.22,378.72C144.29,386.89 145.96,389.78 147.41,392.67L147.53,392.67C147.33,390.55 147.34,386.46 147.34,382.74L147.34,378.74L153.86,378.74L153.86,401.24L145.86,401.24C144.1,398.12 138.5,388.46 137.16,385.73L137.06,385.73C137.27,388.31 137.28,391.31 137.28,395.73L137.28,401.26L130.77,401.22Z" style="fill:white;fill-rule:nonzero;"/>
                    <path id="Shape7" serif:id="Shape" d="M161.59,378.72L172.94,378.72C181.03,378.72 185.15,383.72 185.15,389.61C185.15,396.61 180.05,401.22 172.86,401.22L161.59,401.22L161.59,378.72ZM168.84,396.19L172,396.19C175.65,396.19 177.48,394 177.48,389.78C177.48,386.3 176.02,383.78 172.01,383.78L168.82,383.78L168.84,396.19Z" style="fill:white;fill-rule:nonzero;"/>
                    <path id="Shape8" serif:id="Shape" d="M207.47,394.45C207.95,395.96 209.13,397.08 212.09,397.08C214.73,397.08 215.54,396.29 215.54,395.15C215.54,394.01 214.8,393.25 210.54,392.51C202.24,391.06 201.04,388.23 201.04,385.27C201.04,380.81 205.24,378.27 211.35,378.27C218.85,378.27 221.81,381.76 222.1,385.05L215.1,385.05C214.85,384.05 214.21,382.89 211.38,382.89C209.38,382.89 208.38,383.54 208.38,384.6C208.38,385.66 209.32,386.14 212.84,386.78C221.35,388.31 222.98,390.97 222.98,394.35C222.98,398.63 219.4,401.75 211.75,401.75C204.1,401.75 200.88,398.55 200.2,394.49L207.47,394.45Z" style="fill:white;fill-rule:nonzero;"/>
                    <path id="Shape9" serif:id="Shape" d="M253.11,389.92C253.11,396.26 248.91,401.74 240.11,401.74C232.02,401.74 227.54,396.55 227.54,389.95C227.54,383.75 231.9,378.21 240.44,378.21C248.54,378.21 253.11,383.55 253.11,389.92ZM235.11,389.84C235.11,393.77 236.69,396.68 240.41,396.68C244.13,396.68 245.41,393.34 245.41,389.97C245.41,386.07 244.01,383.18 240.18,383.18C236.59,383.18 235.15,386.17 235.15,389.84L235.11,389.84Z" style="fill:white;fill-rule:nonzero;"/>
                    <path id="Shape10" serif:id="Shape" d="M265.21,378.72L265.21,391.72C265.21,395.35 266.96,396.53 269.38,396.53C271.8,396.53 273.28,395.23 273.28,391.72L273.28,378.72L280.53,378.72L280.53,391.72C280.53,398.27 276.88,401.72 269.2,401.72C261.8,401.72 257.96,398.49 257.96,391.72L257.96,378.72L265.21,378.72Z" style="fill:white;fill-rule:nonzero;"/>
                    <path id="Shape11" serif:id="Shape" d="M288,378.72L295.26,378.72L295.26,396L307.35,396L306.5,401.18L288,401.18L288,378.72Z" style="fill:white;fill-rule:nonzero;"/>
                    <path id="Shape12" serif:id="Shape" d="M318.7,394.45C319.18,395.96 320.36,397.08 323.32,397.08C325.96,397.08 326.77,396.29 326.77,395.15C326.77,394.01 326.04,393.25 321.77,392.51C313.47,391.06 312.27,388.23 312.27,385.27C312.27,380.81 316.47,378.27 322.58,378.27C330.08,378.27 333.04,381.76 333.33,385.05L326.28,385.05C326.03,384.05 325.39,382.89 322.56,382.89C320.56,382.89 319.56,383.54 319.56,384.6C319.56,385.66 320.5,386.14 324.02,386.78C332.53,388.31 334.16,390.97 334.16,394.35C334.16,398.63 330.58,401.75 322.93,401.75C315.28,401.75 312.06,398.55 311.38,394.49L318.7,394.45Z" style="fill:white;fill-rule:nonzero;"/>
                    <path id="Shape13" serif:id="Shape" d="M25.24,428.94L25.24,437.22L18.12,437.22L18.12,414.72L31.68,414.72C37.26,414.72 40.18,417.45 40.18,421.18C40.271,423.653 38.674,425.872 36.3,426.57C37.49,427.08 39.58,428.15 39.58,431.98L39.58,433.19C39.524,434.531 39.628,435.874 39.89,437.19L32.67,437.19C32.254,435.674 32.099,434.098 32.21,432.53L32.21,431.78C32.21,429.68 31.54,428.91 28.69,428.91L25.24,428.94ZM25.24,424.28L29.76,424.28C31.76,424.28 32.89,423.54 32.89,421.91C32.89,420.28 31.89,419.55 29.76,419.55L25.24,419.55L25.24,424.28Z" style="fill:white;fill-rule:nonzero;"/>
                    <path id="Shape14" serif:id="Shape" d="M65.8,428.25L53.8,428.25L53.8,432.05L67.26,432.05L66.43,437.22L46.61,437.22L46.61,414.72L66.44,414.72L66.44,419.9L53.76,419.9L53.76,423.07L65.76,423.07L65.8,428.25Z" style="fill:white;fill-rule:nonzero;"/>
                    <path id="Shape15" serif:id="Shape" d="M96.63,429.61C95.63,434.31 91.83,437.74 84.63,437.74C76.3,437.74 72.13,432.39 72.13,425.96C72.13,419.81 76.25,414.21 84.93,414.21C92.53,414.21 96.12,418.21 96.71,422.21L89.41,422.21C89.09,420.97 88.15,419.12 84.9,419.12C81.46,419.12 79.76,421.81 79.76,425.76C79.76,429.37 81.12,432.68 84.92,432.68C87.67,432.68 88.8,431.49 89.45,429.57L96.63,429.61Z" style="fill:white;fill-rule:nonzero;"/>
                    <path id="Shape16" serif:id="Shape" d="M126.51,425.92C126.51,432.26 122.32,437.74 113.51,437.74C105.42,437.74 100.94,432.55 100.94,425.95C100.94,419.75 105.3,414.21 113.84,414.21C122,414.21 126.51,419.55 126.51,425.92ZM108.56,425.84C108.56,429.77 110.14,432.68 113.85,432.68C117.56,432.68 118.85,429.34 118.85,425.97C118.85,422.07 117.45,419.18 113.62,419.18C110,419.18 108.56,422.17 108.56,425.84Z" style="fill:white;fill-rule:nonzero;"/>
                    <path id="Shape17" serif:id="Shape" d="M140.05,428.94L140.05,437.22L132.94,437.22L132.94,414.72L146.49,414.72C152.07,414.72 154.99,417.45 154.99,421.18C155.085,423.654 153.486,425.875 151.11,426.57C152.3,427.08 154.4,428.15 154.4,431.98L154.4,433.19C154.344,434.531 154.448,435.874 154.71,437.19L147.49,437.19C147.069,435.675 146.914,434.098 147.03,432.53L147.03,431.78C147.03,429.68 146.36,428.91 143.51,428.91L140.05,428.94ZM140.05,424.28L144.57,424.28C146.57,424.28 147.7,423.54 147.7,421.91C147.7,420.28 146.7,419.55 144.57,419.55L140.05,419.55L140.05,424.28Z" style="fill:white;fill-rule:nonzero;"/>
                    <path id="Shape18" serif:id="Shape" d="M161.43,414.72L172.78,414.72C180.87,414.72 184.99,419.72 184.99,425.61C184.99,432.61 179.89,437.22 172.7,437.22L161.43,437.22L161.43,414.72ZM168.68,432.19L171.86,432.19C175.51,432.19 177.34,430 177.34,425.78C177.34,422.3 175.88,419.78 171.87,419.78L168.68,419.78L168.68,432.19Z" style="fill:white;fill-rule:nonzero;"/>
                    <path id="Shape19" serif:id="Shape" d="M196.3,430.45C196.79,431.96 197.96,433.08 200.93,433.08C203.56,433.08 204.37,432.29 204.37,431.15C204.37,430.01 203.64,429.25 199.37,428.51C191.07,427.06 189.87,424.23 189.87,421.27C189.87,416.81 194.07,414.27 200.18,414.27C207.68,414.27 210.64,417.76 210.93,421.05L203.88,421.05C203.63,420.05 202.99,418.89 200.16,418.89C198.16,418.89 197.16,419.54 197.16,420.6C197.16,421.66 198.1,422.14 201.62,422.78C210.13,424.31 211.76,426.97 211.76,430.35C211.76,434.63 208.18,437.75 200.54,437.75C192.9,437.75 189.66,434.55 188.98,430.49L196.3,430.45Z" style="fill:white;fill-rule:nonzero;"/>
                </g>
            </g>
        </g>
    </g>
</svg>
