<?xml version="1.0" encoding="UTF-8" standalone="no"?>
<!DOCTYPE svg PUBLIC "-//W3C//DTD SVG 1.1//EN" "http://www.w3.org/Graphics/SVG/1.1/DTD/svg11.dtd">
<svg width="100%" height="100%" viewBox="0 0 585 493" version="1.1" xmlns="http://www.w3.org/2000/svg" xmlns:xlink="http://www.w3.org/1999/xlink" xml:space="preserve" xmlns:serif="http://www.serif.com/" style="fill-rule:evenodd;clip-rule:evenodd;">
    <g transform="matrix(1,0,0,1,-900,0)">
        <g transform="matrix(0.304688,0,0,0.456439,900,0)">
            <rect id="IconBlack" x="0" y="0" width="1920" height="1080" style="fill:none;"/>
            <clipPath id="_clip1">
                <rect id="IconBlack1" serif:id="IconBlack" x="0" y="0" width="1920" height="1080"/>
            </clipPath>
            <g clip-path="url(#_clip1)">
                <g id="Icon" transform="matrix(3.22542,0,0,2.15307,13.9825,-58.9342)">
                    <path id="shape" d="M2.279,340.644C2.279,340.644 101.077,351.268 128.634,305.964C156.189,260.66 160.86,224.696 198.225,206.013C235.589,187.331 295.84,269.534 295.84,269.534C295.84,269.534 313.588,290.551 307.516,314.37C301.446,338.191 303.068,358.431 314.745,364.037C326.421,369.642 347.918,373.221 347.918,373.221C347.918,373.221 354.222,372.987 351.654,376.023C349.086,379.059 346.516,394.004 365.899,425.999C365.899,425.999 369.869,397.04 355.39,388.868C340.912,380.693 320.127,398.676 320.127,398.676C320.127,398.676 313.512,404.981 317.48,407.861C321.45,410.742 331.882,410.274 338.965,410.819C346.05,411.364 349.708,413.776 354.924,418.525C360.139,423.274 368.273,432.187 369.246,435.144M584.322,134.84C584.322,134.84 525.634,116.961 501.034,165.224C476.437,213.486 480.796,219.092 480.796,219.092C480.796,219.092 481.419,228.432 474.879,218.469C468.341,208.505 434.09,192.937 393.611,189.199C353.133,185.462 349.086,157.128 351.888,130.973C354.69,104.818 365.899,66.518 356.558,42.854C347.216,19.189 338.81,44.723 333.829,48.77C328.846,52.818 314.212,68.699 281.829,69.32C281.829,69.32 267.506,115.716 284.32,182.35C301.133,248.983 306.582,239.641 321.061,238.241C335.541,236.839 362.163,231.001 344.648,226.33C327.133,221.66 307.284,224.93 302.612,226.096C297.942,227.264 315.457,228.9 326.667,248.515C337.876,268.132 326.899,273.97 322.929,299.426C322.929,299.426 316.859,340.994 317.48,349.245C318.103,357.496 352.51,366.838 355.78,362.323C359.05,357.808 354.846,353.604 346.905,351.736C338.965,349.868 334.45,353.604 340.678,357.496C346.905,361.389 367.145,367.149 371.192,352.825C375.241,338.502 353.444,329.162 355.156,306.898C356.869,284.634 350.642,265.485 364.343,255.832C364.343,255.832 348.307,252.719 343.169,252.719C338.031,252.719 338.654,255.832 338.499,264.241C338.343,272.647 338.499,268.911 338.499,268.911C338.499,268.911 360.139,255.055 379.756,251.475C399.371,247.894 403.264,250.696 397.037,262.528C390.809,274.36 382.122,287.983 384.924,311.959C387.726,335.936 429.159,350.79 461.229,336.467C493.301,322.144 520.964,304.407 532.639,318.108C544.315,331.808 551.321,380.383 541.67,406.849C532.017,433.316 513.386,497.597 455.939,496.042C398.491,494.484 398.282,473.95 402.797,449.195C407.311,424.442 406.379,412.809 397.039,404.558C387.696,396.307 387.228,415.878 387.228,420.861C387.228,425.842 398.307,430.396 400.798,420.432C403.288,410.468 396.569,397.196 396.569,397.196C396.569,397.196 396.258,393.616 387.539,394.861C378.822,396.106 371.816,389.879 370.882,383.496C369.948,377.113 367.922,340.37 352.978,329.472C338.031,318.575 327.446,310.79 309.852,304.719C292.259,298.647 305.961,302.696 290.859,281.677C275.757,260.66 258.631,249.607 231.853,247.581C205.076,245.558 190.26,268.376 190.26,268.376C190.26,268.376 240.104,251.007 257.697,265.953C275.291,280.898 284.163,290.551 284.942,286.97C285.721,283.39 284.631,281.677 282.763,277.941C280.895,274.204 278.714,269.845 252.248,271.713C225.782,273.581 216.44,276.383 199.938,292.419C199.938,292.419 239.948,311.881 259.41,310.168C278.871,308.455 281.984,305.03 275.291,293.509C275.291,293.509 232.631,300.204 218.776,295.845C204.919,291.485 210.836,288.839 221.423,283.857C232.008,278.875 248.978,273.27 260.81,283.39C266.668,288.399 282.783,309.125 289.054,331.872C295.452,355.076 291.833,380.358 279.961,390.657C256.452,411.053 217.529,393.772 199.159,388.01C180.789,382.251 150.274,366.838 141.866,348.466C133.46,330.096 150.585,321.066 167.4,326.67C184.213,332.275 206.321,354.694 197.602,374.778C188.885,394.861 182.189,404.046 158.836,417.904C135.483,431.759 118.202,444.059 133.46,461.65C148.717,479.244 189.506,501.818 230.763,511.159C272.021,520.501 310.008,525.171 331.803,522.835C353.601,520.501 371.66,516.92 374.618,501.818C377.575,486.716 372.282,486.716 369.014,477.219C365.799,467.883 366.798,456.138 369.792,449.827C369.948,449.508 377.265,436.585 357.803,423.508C338.343,410.429 322.463,411.831 316.859,413.544C311.254,415.257 324.79,416.505 336.467,423.356C348.144,430.205 376.331,456.28 368.079,432.848" style="fill:none;stroke-width:4px;"/>
                </g>
            </g>
        </g>
    </g>
    <style>
        #shape { stroke: #000; }
        @media (prefers-color-scheme: dark) {
            #shape { stroke: #FFF; }
        }
    </style>
</svg>
